{
    "asset" : {
        "generator" : "Khronos glTF Blender I/O v1.2.75",
        "version" : "2.0"
    },
    "extensionsUsed" : [
        "KHR_materials_clearcoat"
    ],
    "scene" : 0,
    "scenes" : [
        {
            "name" : "Scene",
            "nodes" : [
                1
            ]
        }
    ],
    "nodes" : [
        {
            "mesh" : 0,
            "name" : "Axe.blade"
        },
        {
            "children" : [
                0
            ],
            "mesh" : 1,
            "name" : "Axe.grip"
        }
    ],
    "materials" : [
        {
            "doubleSided" : true,
            "emissiveFactor" : [
                0,
                0,
                0
            ],
            "extensions" : {
                "KHR_materials_clearcoat" : {
                    "clearcoatFactor" : 0.16727274656295776,
                    "clearcoatRoughnessFactor" : 0.23363636434078217
                }
            },
            "name" : "Material.001",
            "pbrMetallicRoughness" : {
                "baseColorTexture" : {
                    "index" : 0,
                    "texCoord" : 0
                },
                "metallicFactor" : 0.8799999952316284,
                "roughnessFactor" : 0.16727273166179657
            }
        },
        {
            "doubleSided" : true,
            "emissiveFactor" : [
                0,
                0,
                0
            ],
            "name" : "Material.002",
            "pbrMetallicRoughness" : {
                "baseColorTexture" : {
                    "index" : 1,
                    "texCoord" : 0
                },
                "metallicFactor" : 0.08727272599935532,
                "roughnessFactor" : 0.9181817770004272
            }
        }
    ],
    "meshes" : [
        {
            "name" : "Cube.001",
            "primitives" : [
                {
                    "attributes" : {
                        "POSITION" : 0,
                        "NORMAL" : 1,
                        "TEXCOORD_0" : 2
                    },
                    "indices" : 3,
                    "material" : 0
                }
            ]
        },
        {
            "name" : "Cylinder",
            "primitives" : [
                {
                    "attributes" : {
                        "POSITION" : 4,
                        "NORMAL" : 5,
                        "TEXCOORD_0" : 6
                    },
                    "indices" : 7,
                    "material" : 1
                }
            ]
        }
    ],
    "textures" : [
        {
            "sampler" : 0,
            "source" : 0
        },
        {
            "source" : 1
        }
    ],
    "images" : [
        {
            "mimeType" : "image/jpeg",
            "name" : "steel",
            "uri" : "textures/steel.jpg"
        },
        {
            "mimeType" : "image/jpeg",
            "name" : "wood",
            "uri" : "textures/wood.jpg"
        }
    ],
    "accessors" : [
        {
            "bufferView" : 0,
            "componentType" : 5126,
            "count" : 109,
            "max" : [
                0.014423839747905731,
                0.61163729429245,
                0.30378201603889465
            ],
            "min" : [
                -0.014423839747905731,
                0.31115907430648804,
                -0.2810148000717163
            ],
            "type" : "VEC3"
        },
        {
            "bufferView" : 1,
            "componentType" : 5126,
            "count" : 109,
            "type" : "VEC3"
        },
        {
            "bufferView" : 2,
            "componentType" : 5126,
            "count" : 109,
            "type" : "VEC2"
        },
        {
            "bufferView" : 3,
            "componentType" : 5123,
            "count" : 444,
            "type" : "SCALAR"
        },
        {
            "bufferView" : 4,
            "componentType" : 5126,
            "count" : 177,
            "max" : [
                0.017837267369031906,
                0.4621281623840332,
                0.04281145706772804
            ],
            "min" : [
                -0.017837267369031906,
                -0.429205060005188,
                -0.042811453342437744
            ],
            "type" : "VEC3"
        },
        {
            "bufferView" : 5,
            "componentType" : 5126,
            "count" : 177,
            "type" : "VEC3"
        },
        {
            "bufferView" : 6,
            "componentType" : 5126,
            "count" : 177,
            "type" : "VEC2"
        },
        {
            "bufferView" : 7,
            "componentType" : 5123,
            "count" : 954,
            "type" : "SCALAR"
        }
    ],
    "bufferViews" : [
        {
            "buffer" : 0,
            "byteLength" : 1308,
            "byteOffset" : 0
        },
        {
            "buffer" : 0,
            "byteLength" : 1308,
            "byteOffset" : 1308
        },
        {
            "buffer" : 0,
            "byteLength" : 872,
            "byteOffset" : 2616
        },
        {
            "buffer" : 0,
            "byteLength" : 888,
            "byteOffset" : 3488
        },
        {
            "buffer" : 0,
            "byteLength" : 2124,
            "byteOffset" : 4376
        },
        {
            "buffer" : 0,
            "byteLength" : 2124,
            "byteOffset" : 6500
        },
        {
            "buffer" : 0,
            "byteLength" : 1416,
            "byteOffset" : 8624
        },
        {
            "buffer" : 0,
            "byteLength" : 1908,
            "byteOffset" : 10040
        }
    ],
    "samplers" : [
        {
            "magFilter" : 9728,
            "minFilter" : 9984
        }
    ],
    "buffers" : [
        {
            "byteLength" : 11948,
            "uri" : "scene.bin"
        }
    ]
}
