{
    "asset" : {
        "generator" : "Khronos glTF Blender I/O v1.4.40",
        "version" : "2.0"
    },
    "scene" : 0,
    "scenes" : [
        {
            "name" : "Scene",
            "nodes" : [
                10
            ]
        }
    ],
    "nodes" : [
        {
            "mesh" : 0,
            "name" : "Arch",
            "rotation" : [
                -1,
                0,
                0,
                1.9470718370939721e-07
            ],
            "scale" : [
                1.0500001907348633,
                5,
                0.6000000238418579
            ],
            "translation" : [
                -32.24421310424805,
                3.6786625385284424,
                -3
            ]
        },
        {
            "mesh" : 1,
            "name" : "Column",
            "scale" : [
                0.5500000715255737,
                3,
                0.550000011920929
            ],
            "translation" : [
                -32.24629592895508,
                0.5,
                -24.187450408935547
            ]
        },
        {
            "mesh" : 2,
            "name" : "Column.001",
            "scale" : [
                0.5500000715255737,
                3,
                0.550000011920929
            ],
            "translation" : [
                -32.24629592895508,
                0.5,
                -8.778575897216797
            ]
        },
        {
            "mesh" : 3,
            "name" : "Column.002",
            "scale" : [
                0.5500000715255737,
                3,
                0.550000011920929
            ],
            "translation" : [
                -32.24629592895508,
                0.5,
                16
            ]
        },
        {
            "mesh" : 4,
            "name" : "Column.003",
            "scale" : [
                0.5500000715255737,
                3,
                0.550000011920929
            ],
            "translation" : [
                -32.24629592895508,
                0.5,
                22.812549591064453
            ]
        },
        {
            "mesh" : 5,
            "name" : "Column.004",
            "scale" : [
                0.5500000715255737,
                3,
                0.550000011920929
            ],
            "translation" : [
                31.753711700439453,
                0.5,
                -24.187450408935547
            ]
        },
        {
            "mesh" : 6,
            "name" : "Column.005",
            "scale" : [
                0.5500000715255737,
                3,
                0.550000011920929
            ],
            "translation" : [
                31.753711700439453,
                0.5,
                17.812549591064453
            ]
        },
        {
            "mesh" : 7,
            "name" : "Column.006",
            "scale" : [
                0.5500000715255737,
                3,
                0.550000011920929
            ],
            "translation" : [
                -27.3511962890625,
                0.5,
                22.812549591064453
            ]
        },
        {
            "mesh" : 8,
            "name" : "Column.007",
            "scale" : [
                0.5500000715255737,
                3,
                0.550000011920929
            ],
            "translation" : [
                31.753711700439453,
                0.5,
                22.812549591064453
            ]
        },
        {
            "mesh" : 9,
            "name" : "Column.008",
            "scale" : [
                0.5500000715255737,
                3,
                0.550000011920929
            ],
            "translation" : [
                -27.3511962890625,
                0.5,
                -24.187450408935547
            ]
        },
        {
            "children" : [
                0,
                1,
                2,
                3,
                4,
                5,
                6,
                7,
                8,
                9
            ],
            "mesh" : 10,
            "name" : "Maze"
        }
    ],
    "materials" : [
        {
            "doubleSided" : true,
            "name" : "Labirinth",
            "pbrMetallicRoughness" : {}
        }
    ],
    "meshes" : [
        {
            "name" : "Cube.004",
            "primitives" : [
                {
                    "attributes" : {
                        "POSITION" : 0,
                        "NORMAL" : 1,
                        "TEXCOORD_0" : 2
                    },
                    "indices" : 3,
                    "material" : 0
                }
            ]
        },
        {
            "name" : "Cube.009",
            "primitives" : [
                {
                    "attributes" : {
                        "POSITION" : 4,
                        "NORMAL" : 5,
                        "TEXCOORD_0" : 6
                    },
                    "indices" : 7,
                    "material" : 0
                }
            ]
        },
        {
            "name" : "Cube.010",
            "primitives" : [
                {
                    "attributes" : {
                        "POSITION" : 8,
                        "NORMAL" : 9,
                        "TEXCOORD_0" : 10
                    },
                    "indices" : 7,
                    "material" : 0
                }
            ]
        },
        {
            "name" : "Cube.011",
            "primitives" : [
                {
                    "attributes" : {
                        "POSITION" : 11,
                        "NORMAL" : 12,
                        "TEXCOORD_0" : 13
                    },
                    "indices" : 7,
                    "material" : 0
                }
            ]
        },
        {
            "name" : "Cube.012",
            "primitives" : [
                {
                    "attributes" : {
                        "POSITION" : 14,
                        "NORMAL" : 15,
                        "TEXCOORD_0" : 16
                    },
                    "indices" : 7,
                    "material" : 0
                }
            ]
        },
        {
            "name" : "Cube.013",
            "primitives" : [
                {
                    "attributes" : {
                        "POSITION" : 17,
                        "NORMAL" : 18,
                        "TEXCOORD_0" : 19
                    },
                    "indices" : 7,
                    "material" : 0
                }
            ]
        },
        {
            "name" : "Cube.017",
            "primitives" : [
                {
                    "attributes" : {
                        "POSITION" : 20,
                        "NORMAL" : 21,
                        "TEXCOORD_0" : 22
                    },
                    "indices" : 7,
                    "material" : 0
                }
            ]
        },
        {
            "name" : "Cube.018",
            "primitives" : [
                {
                    "attributes" : {
                        "POSITION" : 23,
                        "NORMAL" : 24,
                        "TEXCOORD_0" : 25
                    },
                    "indices" : 7,
                    "material" : 0
                }
            ]
        },
        {
            "name" : "Cube.016",
            "primitives" : [
                {
                    "attributes" : {
                        "POSITION" : 26,
                        "NORMAL" : 27,
                        "TEXCOORD_0" : 28
                    },
                    "indices" : 7,
                    "material" : 0
                }
            ]
        },
        {
            "name" : "Cube.019",
            "primitives" : [
                {
                    "attributes" : {
                        "POSITION" : 29,
                        "NORMAL" : 30,
                        "TEXCOORD_0" : 31
                    },
                    "indices" : 7,
                    "material" : 0
                }
            ]
        },
        {
            "name" : "Cube.001",
            "primitives" : [
                {
                    "attributes" : {
                        "POSITION" : 32,
                        "NORMAL" : 33,
                        "TEXCOORD_0" : 34
                    },
                    "indices" : 35,
                    "material" : 0
                }
            ]
        }
    ],
    "accessors" : [
        {
            "bufferView" : 0,
            "componentType" : 5126,
            "count" : 1302,
            "max" : [
                0.5031566619873047,
                1.0321022272109985,
                2.16616153717041
            ],
            "min" : [
                -1.328110694885254,
                -0.006647750735282898,
                -7.564150810241699
            ],
            "type" : "VEC3"
        },
        {
            "bufferView" : 1,
            "componentType" : 5126,
            "count" : 1302,
            "type" : "VEC3"
        },
        {
            "bufferView" : 2,
            "componentType" : 5126,
            "count" : 1302,
            "type" : "VEC2"
        },
        {
            "bufferView" : 3,
            "componentType" : 5123,
            "count" : 2052,
            "type" : "SCALAR"
        },
        {
            "bufferView" : 4,
            "componentType" : 5126,
            "count" : 48,
            "max" : [
                1.0000038146972656,
                1.002549648284912,
                1.0000038146972656
            ],
            "min" : [
                -1,
                -0.6606161594390869,
                -1
            ],
            "type" : "VEC3"
        },
        {
            "bufferView" : 5,
            "componentType" : 5126,
            "count" : 48,
            "type" : "VEC3"
        },
        {
            "bufferView" : 6,
            "componentType" : 5126,
            "count" : 48,
            "type" : "VEC2"
        },
        {
            "bufferView" : 7,
            "componentType" : 5123,
            "count" : 72,
            "type" : "SCALAR"
        },
        {
            "bufferView" : 8,
            "componentType" : 5126,
            "count" : 48,
            "max" : [
                1.0000038146972656,
                1.002549648284912,
                1.0000009536743164
            ],
            "min" : [
                -1,
                -0.6606161594390869,
                -1
            ],
            "type" : "VEC3"
        },
        {
            "bufferView" : 9,
            "componentType" : 5126,
            "count" : 48,
            "type" : "VEC3"
        },
        {
            "bufferView" : 10,
            "componentType" : 5126,
            "count" : 48,
            "type" : "VEC2"
        },
        {
            "bufferView" : 11,
            "componentType" : 5126,
            "count" : 48,
            "max" : [
                1.0000038146972656,
                1.002549648284912,
                1
            ],
            "min" : [
                -1,
                -0.6606161594390869,
                -1.0000019073486328
            ],
            "type" : "VEC3"
        },
        {
            "bufferView" : 12,
            "componentType" : 5126,
            "count" : 48,
            "type" : "VEC3"
        },
        {
            "bufferView" : 13,
            "componentType" : 5126,
            "count" : 48,
            "type" : "VEC2"
        },
        {
            "bufferView" : 14,
            "componentType" : 5126,
            "count" : 48,
            "max" : [
                1.0000038146972656,
                1.002549648284912,
                1
            ],
            "min" : [
                -1,
                -0.6606161594390869,
                -1.0000038146972656
            ],
            "type" : "VEC3"
        },
        {
            "bufferView" : 15,
            "componentType" : 5126,
            "count" : 48,
            "type" : "VEC3"
        },
        {
            "bufferView" : 16,
            "componentType" : 5126,
            "count" : 48,
            "type" : "VEC2"
        },
        {
            "bufferView" : 17,
            "componentType" : 5126,
            "count" : 48,
            "max" : [
                1,
                1.002549648284912,
                1.0000038146972656
            ],
            "min" : [
                -1.0000038146972656,
                -0.6606161594390869,
                -1
            ],
            "type" : "VEC3"
        },
        {
            "bufferView" : 18,
            "componentType" : 5126,
            "count" : 48,
            "type" : "VEC3"
        },
        {
            "bufferView" : 19,
            "componentType" : 5126,
            "count" : 48,
            "type" : "VEC2"
        },
        {
            "bufferView" : 20,
            "componentType" : 5126,
            "count" : 48,
            "max" : [
                1,
                1.002549648284912,
                1
            ],
            "min" : [
                -1.0000038146972656,
                -0.6606161594390869,
                -1.0000038146972656
            ],
            "type" : "VEC3"
        },
        {
            "bufferView" : 21,
            "componentType" : 5126,
            "count" : 48,
            "type" : "VEC3"
        },
        {
            "bufferView" : 22,
            "componentType" : 5126,
            "count" : 48,
            "type" : "VEC2"
        },
        {
            "bufferView" : 23,
            "componentType" : 5126,
            "count" : 48,
            "max" : [
                1.0000038146972656,
                1.002549648284912,
                1
            ],
            "min" : [
                -1,
                -0.6606161594390869,
                -1.0000038146972656
            ],
            "type" : "VEC3"
        },
        {
            "bufferView" : 24,
            "componentType" : 5126,
            "count" : 48,
            "type" : "VEC3"
        },
        {
            "bufferView" : 25,
            "componentType" : 5126,
            "count" : 48,
            "type" : "VEC2"
        },
        {
            "bufferView" : 26,
            "componentType" : 5126,
            "count" : 48,
            "max" : [
                1,
                1.002549648284912,
                1
            ],
            "min" : [
                -1.0000038146972656,
                -0.6606161594390869,
                -1.0000038146972656
            ],
            "type" : "VEC3"
        },
        {
            "bufferView" : 27,
            "componentType" : 5126,
            "count" : 48,
            "type" : "VEC3"
        },
        {
            "bufferView" : 28,
            "componentType" : 5126,
            "count" : 48,
            "type" : "VEC2"
        },
        {
            "bufferView" : 29,
            "componentType" : 5126,
            "count" : 48,
            "max" : [
                1.0000038146972656,
                1.002549648284912,
                1.0000038146972656
            ],
            "min" : [
                -1,
                -0.6606161594390869,
                -1
            ],
            "type" : "VEC3"
        },
        {
            "bufferView" : 30,
            "componentType" : 5126,
            "count" : 48,
            "type" : "VEC3"
        },
        {
            "bufferView" : 31,
            "componentType" : 5126,
            "count" : 48,
            "type" : "VEC2"
        },
        {
            "bufferView" : 32,
            "componentType" : 5126,
            "count" : 4118,
            "max" : [
                32.25347137451172,
                1.4973210096359253,
                23.312875747680664
            ],
            "min" : [
                -32.74653625488281,
                -1.4818484783172607,
                -24.687124252319336
            ],
            "type" : "VEC3"
        },
        {
            "bufferView" : 33,
            "componentType" : 5126,
            "count" : 4118,
            "type" : "VEC3"
        },
        {
            "bufferView" : 34,
            "componentType" : 5126,
            "count" : 4118,
            "type" : "VEC2"
        },
        {
            "bufferView" : 35,
            "componentType" : 5123,
            "count" : 7200,
            "type" : "SCALAR"
        }
    ],
    "bufferViews" : [
        {
            "buffer" : 0,
            "byteLength" : 15624,
            "byteOffset" : 0
        },
        {
            "buffer" : 0,
            "byteLength" : 15624,
            "byteOffset" : 15624
        },
        {
            "buffer" : 0,
            "byteLength" : 10416,
            "byteOffset" : 31248
        },
        {
            "buffer" : 0,
            "byteLength" : 4104,
            "byteOffset" : 41664
        },
        {
            "buffer" : 0,
            "byteLength" : 576,
            "byteOffset" : 45768
        },
        {
            "buffer" : 0,
            "byteLength" : 576,
            "byteOffset" : 46344
        },
        {
            "buffer" : 0,
            "byteLength" : 384,
            "byteOffset" : 46920
        },
        {
            "buffer" : 0,
            "byteLength" : 144,
            "byteOffset" : 47304
        },
        {
            "buffer" : 0,
            "byteLength" : 576,
            "byteOffset" : 47448
        },
        {
            "buffer" : 0,
            "byteLength" : 576,
            "byteOffset" : 48024
        },
        {
            "buffer" : 0,
            "byteLength" : 384,
            "byteOffset" : 48600
        },
        {
            "buffer" : 0,
            "byteLength" : 576,
            "byteOffset" : 48984
        },
        {
            "buffer" : 0,
            "byteLength" : 576,
            "byteOffset" : 49560
        },
        {
            "buffer" : 0,
            "byteLength" : 384,
            "byteOffset" : 50136
        },
        {
            "buffer" : 0,
            "byteLength" : 576,
            "byteOffset" : 50520
        },
        {
            "buffer" : 0,
            "byteLength" : 576,
            "byteOffset" : 51096
        },
        {
            "buffer" : 0,
            "byteLength" : 384,
            "byteOffset" : 51672
        },
        {
            "buffer" : 0,
            "byteLength" : 576,
            "byteOffset" : 52056
        },
        {
            "buffer" : 0,
            "byteLength" : 576,
            "byteOffset" : 52632
        },
        {
            "buffer" : 0,
            "byteLength" : 384,
            "byteOffset" : 53208
        },
        {
            "buffer" : 0,
            "byteLength" : 576,
            "byteOffset" : 53592
        },
        {
            "buffer" : 0,
            "byteLength" : 576,
            "byteOffset" : 54168
        },
        {
            "buffer" : 0,
            "byteLength" : 384,
            "byteOffset" : 54744
        },
        {
            "buffer" : 0,
            "byteLength" : 576,
            "byteOffset" : 55128
        },
        {
            "buffer" : 0,
            "byteLength" : 576,
            "byteOffset" : 55704
        },
        {
            "buffer" : 0,
            "byteLength" : 384,
            "byteOffset" : 56280
        },
        {
            "buffer" : 0,
            "byteLength" : 576,
            "byteOffset" : 56664
        },
        {
            "buffer" : 0,
            "byteLength" : 576,
            "byteOffset" : 57240
        },
        {
            "buffer" : 0,
            "byteLength" : 384,
            "byteOffset" : 57816
        },
        {
            "buffer" : 0,
            "byteLength" : 576,
            "byteOffset" : 58200
        },
        {
            "buffer" : 0,
            "byteLength" : 576,
            "byteOffset" : 58776
        },
        {
            "buffer" : 0,
            "byteLength" : 384,
            "byteOffset" : 59352
        },
        {
            "buffer" : 0,
            "byteLength" : 49416,
            "byteOffset" : 59736
        },
        {
            "buffer" : 0,
            "byteLength" : 49416,
            "byteOffset" : 109152
        },
        {
            "buffer" : 0,
            "byteLength" : 32944,
            "byteOffset" : 158568
        },
        {
            "buffer" : 0,
            "byteLength" : 14400,
            "byteOffset" : 191512
        }
    ],
    "buffers" : [
        {
            "byteLength" : 205912,
            "uri" : "data:application/octet-stream;base64,"
        }
    ]
}
